# Blender v2.76 (sub 0) OBJ File: 'Quarto_pieces.blend'
# www.blender.org
o Board_Plane.002
v -5.854030 -0.010000 5.854030
v -5.957246 -0.052754 5.957246
v 5.854030 -0.010000 5.854030
v 5.957246 -0.052754 5.957246
v -5.854030 -0.010000 -5.854030
v -5.957246 -0.052754 -5.957246
v 5.854030 -0.010000 -5.854030
v 5.957246 -0.052754 -5.957246
v -6.000000 -0.155971 -3.000000
v -5.854030 -0.010000 -3.145970
v -5.854030 -0.010000 -2.854029
v -5.957246 -0.052754 -3.072985
v -5.940496 -0.105452 -3.000000
v -5.854030 -0.110000 -3.000000
v -5.957246 -0.052754 -2.927014
v -6.000000 -0.155971 0.000000
v -5.854030 -0.010000 -0.145971
v -5.854030 -0.010000 0.145971
v -5.957246 -0.052754 -0.072985
v -5.940496 -0.105452 -0.000000
v -5.854030 -0.110000 0.000000
v -5.957246 -0.052754 0.072986
v -5.854030 -0.010000 2.854029
v -5.854030 -0.010000 3.145970
v -6.000000 -0.155971 3.000000
v -5.854030 -0.110000 3.000000
v -5.940496 -0.105452 3.000000
v -5.957246 -0.052754 3.072985
v -5.957246 -0.052754 2.927014
v -3.000000 -0.155971 6.000000
v -3.145970 -0.010000 5.854030
v -2.854029 -0.010000 5.854030
v -3.072985 -0.052754 5.957246
v -3.000000 -0.105452 5.940496
v -3.000000 -0.110000 5.854030
v -2.927014 -0.052754 5.957246
v 0.000000 -0.155971 6.000000
v -0.145971 -0.010000 5.854030
v 0.145971 -0.010000 5.854030
v -0.072985 -0.052754 5.957246
v -0.000000 -0.105452 5.940496
v 0.000000 -0.110000 5.854029
v 0.072986 -0.052754 5.957246
v 2.854029 -0.010000 5.854030
v 3.145970 -0.010000 5.854030
v 3.000000 -0.155971 6.000000
v 3.000000 -0.110000 5.854030
v 3.000000 -0.105452 5.940496
v 3.072985 -0.052754 5.957246
v 2.927014 -0.052754 5.957246
v 6.000000 -0.155971 3.000000
v 5.854030 -0.010000 3.145970
v 5.854030 -0.010000 2.854029
v 5.957246 -0.052754 3.072985
v 5.940496 -0.105452 3.000000
v 5.854030 -0.110000 3.000000
v 5.957246 -0.052754 2.927014
v 6.000000 -0.155971 0.000000
v 5.854030 -0.010000 0.145971
v 5.854030 -0.010000 -0.145971
v 5.957246 -0.052754 0.072985
v 5.940496 -0.105452 0.000000
v 5.854029 -0.110000 0.000000
v 5.957246 -0.052754 -0.072986
v 5.854030 -0.010000 -2.854029
v 5.854030 -0.010000 -3.145970
v 6.000000 -0.155971 -3.000000
v 5.854030 -0.110000 -3.000000
v 5.940496 -0.105452 -3.000000
v 5.957246 -0.052754 -3.072985
v 5.957246 -0.052754 -2.927014
v 3.000000 -0.155971 -6.000000
v 3.145970 -0.010000 -5.854030
v 2.854029 -0.010000 -5.854030
v 3.072985 -0.052754 -5.957246
v 3.000000 -0.105452 -5.940496
v 3.000000 -0.110000 -5.854030
v 2.927014 -0.052754 -5.957246
v 0.000000 -0.155971 -6.000000
v 0.145971 -0.010000 -5.854030
v -0.145971 -0.010000 -5.854030
v 0.072985 -0.052754 -5.957246
v 0.000000 -0.105452 -5.940496
v 0.000000 -0.110000 -5.854030
v -0.072986 -0.052754 -5.957246
v -2.854029 -0.010000 -5.854030
v -3.145970 -0.010000 -5.854030
v -3.000000 -0.155971 -6.000000
v -3.000000 -0.110000 -5.854030
v -3.000000 -0.105452 -5.940496
v -3.072985 -0.052754 -5.957246
v -2.927014 -0.052754 -5.957246
v -3.145970 -0.010000 3.145970
v -3.145970 -0.010000 2.854029
v -2.854029 -0.010000 2.854029
v -2.854029 -0.010000 3.145970
v -3.145970 -0.110000 3.000000
v -3.000000 -0.110000 3.000000
v -3.000000 -0.110000 2.854030
v -2.854029 -0.110000 3.000000
v -3.000000 -0.110000 3.145970
v -0.145971 -0.010000 3.145970
v -0.145971 -0.010000 2.854029
v 0.145971 -0.010000 2.854029
v 0.145971 -0.010000 3.145970
v -0.145970 -0.110000 3.000000
v 0.000000 -0.110000 3.000000
v 0.000000 -0.110000 2.854029
v 0.145971 -0.110000 3.000000
v 0.000000 -0.110000 3.145970
v 2.854029 -0.010000 2.854029
v 3.145970 -0.010000 2.854029
v 3.145970 -0.010000 3.145970
v 2.854029 -0.010000 3.145970
v 3.000000 -0.110000 2.854030
v 3.000000 -0.110000 3.000000
v 3.145970 -0.110000 3.000000
v 3.000000 -0.110000 3.145970
v 2.854030 -0.110000 3.000000
v -3.145970 -0.010000 0.145971
v -3.145970 -0.010000 -0.145971
v -2.854029 -0.010000 -0.145971
v -2.854029 -0.010000 0.145971
v -3.145971 -0.110000 0.000000
v -3.000000 -0.110000 0.000000
v -3.000000 -0.110000 -0.145970
v -2.854029 -0.110000 0.000000
v -3.000000 -0.110000 0.145971
v -0.145971 -0.010000 0.145971
v -0.145971 -0.010000 -0.145971
v 0.145971 -0.010000 -0.145971
v 0.145971 -0.010000 0.145971
v -0.145971 -0.110000 0.000000
v -0.000000 -0.110000 -0.000000
v 0.000000 -0.110000 -0.145971
v 0.145971 -0.110000 0.000000
v 0.000000 -0.110000 0.145971
v 2.854029 -0.010000 -0.145971
v 3.145970 -0.010000 -0.145971
v 3.145970 -0.010000 0.145971
v 2.854029 -0.010000 0.145971
v 3.000000 -0.110000 -0.145970
v 3.000000 -0.110000 0.000000
v 3.145970 -0.110000 0.000000
v 3.000000 -0.110000 0.145971
v 2.854029 -0.110000 0.000000
v -3.145970 -0.010000 -2.854029
v -3.145970 -0.010000 -3.145970
v -2.854029 -0.010000 -3.145970
v -2.854029 -0.010000 -2.854029
v -3.145970 -0.110000 -3.000000
v -3.000000 -0.110000 -3.000000
v -3.000000 -0.110000 -3.145970
v -2.854029 -0.110000 -3.000000
v -3.000000 -0.110000 -2.854029
v -0.145971 -0.010000 -2.854029
v -0.145971 -0.010000 -3.145970
v 0.145971 -0.010000 -3.145970
v 0.145971 -0.010000 -2.854029
v -0.145970 -0.110000 -3.000000
v 0.000000 -0.110000 -3.000000
v 0.000000 -0.110000 -3.145971
v 0.145971 -0.110000 -3.000000
v 0.000000 -0.110000 -2.854029
v 2.854029 -0.010000 -3.145970
v 3.145970 -0.010000 -3.145970
v 3.145970 -0.010000 -2.854029
v 2.854029 -0.010000 -2.854029
v 3.000000 -0.110000 -3.145970
v 3.000000 -0.110000 -3.000000
v 3.145970 -0.110000 -3.000000
v 3.000000 -0.110000 -2.854029
v 2.854030 -0.110000 -3.000000
v -5.917195 -1.010000 -5.917195
v -5.917195 -1.010000 5.917195
v 5.917195 -1.010000 5.917195
v 5.917195 -1.010000 -5.917195
v -5.883748 -0.155971 6.000000
v -6.000000 -0.155971 5.883748
v -5.958450 -0.055662 5.958450
v -5.941874 -0.155971 5.984426
v -5.984426 -0.155971 5.941874
v 6.000000 -0.155971 5.883748
v 5.883748 -0.155971 6.000000
v 5.958450 -0.055662 5.958450
v 5.984426 -0.155971 5.941874
v 5.941874 -0.155971 5.984426
v -6.000000 -0.155971 -5.883748
v -5.883748 -0.155971 -6.000000
v -5.958450 -0.055662 -5.958450
v -5.984426 -0.155971 -5.941874
v -5.941874 -0.155971 -5.984426
v 5.883748 -0.155971 -6.000000
v 6.000000 -0.155971 -5.883748
v 5.958450 -0.055662 -5.958450
v 5.941874 -0.155971 -5.984426
v 5.984426 -0.155971 -5.941874
v -5.883748 -0.927195 -6.000000
v -6.000000 -0.927195 -5.883748
v -5.932882 -0.994313 -5.932882
v -5.941874 -0.927195 -5.984426
v -5.984426 -0.927195 -5.941874
v -6.000000 -0.927195 5.883748
v -5.883748 -0.927195 6.000000
v -5.932882 -0.994313 5.932882
v -5.984426 -0.927195 5.941874
v -5.941874 -0.927195 5.984426
v 5.883748 -0.927195 6.000000
v 6.000000 -0.927195 5.883748
v 5.932882 -0.994313 5.932882
v 5.941874 -0.927195 5.984426
v 5.984426 -0.927195 5.941874
v 6.000000 -0.927195 -5.883748
v 5.883748 -0.927195 -6.000000
v 5.932882 -0.994313 -5.932882
v 5.984426 -0.927195 -5.941874
v 5.941874 -0.927195 -5.984426
vt 0.000000 0.000000
vn 0.000000 1.000000 0.000000
vn 0.000000 0.382700 -0.923900
vn -0.923900 0.382700 0.000000
vn -1.000000 0.000000 0.000000
vn 0.923900 0.382700 0.000000
vn -0.530500 0.624800 0.572900
vn 0.042900 0.814600 0.578400
vn 0.042900 0.814600 -0.578400
vn 0.042800 0.814600 -0.578400
vn 0.572900 0.624800 0.530500
vn 0.578400 0.814600 -0.042900
vn -0.578400 0.814700 -0.042900
vn -0.578400 0.814600 -0.042900
vn 0.578400 0.814600 -0.042800
vn 0.530500 0.624800 -0.572900
vn -0.042900 0.814600 -0.578400
vn -0.042900 0.814600 0.578400
vn -0.042800 0.814600 0.578400
vn -0.572900 0.624800 -0.530500
vn -0.578400 0.814600 0.042900
vn 0.578400 0.814700 0.042900
vn 0.578400 0.814600 0.042900
vn -0.578400 0.814600 0.042800
vn -0.382700 0.923900 0.000000
vn 0.000000 0.000000 1.000000
vn -0.000000 0.923900 0.382700
vn 1.000000 0.000000 0.000000
vn 0.382700 0.923900 -0.000000
vn 0.000000 -0.707100 -0.707100
vn 0.000000 0.923900 -0.382700
vn 0.000000 0.000000 -1.000000
vn 0.000100 0.382600 -0.923900
vn -0.923800 0.382800 0.000000
vn 0.000000 0.382700 0.923900
vn -0.000100 0.382600 0.923900
vn 0.923800 0.382800 -0.000000
vn 0.000000 0.825000 0.565200
vn 0.000000 0.825000 -0.565200
vn -0.565200 0.825000 0.000000
vn 0.565200 0.825000 0.000000
vn -0.530500 0.624800 -0.572900
vn -0.572900 0.624800 0.530500
vn 0.530500 0.624800 0.572900
vn 0.572900 0.624800 -0.530500
vn 0.000000 -0.707100 0.707100
vn 0.707100 -0.707100 0.000000
vn -0.707100 -0.707100 0.000000
vn 0.000000 -1.000000 0.000000
vn -0.253400 0.203000 0.945800
vn -0.705600 0.066100 0.705600
vn -0.945800 0.203000 0.253400
vn 0.945800 0.203000 0.253400
vn 0.705600 0.066100 0.705600
vn 0.253400 0.203000 0.945800
vn -0.945800 0.203000 -0.253400
vn -0.705600 0.066100 -0.705600
vn -0.253400 0.203000 -0.945800
vn 0.253400 0.203000 -0.945800
vn 0.705600 0.066100 -0.705600
vn 0.945800 0.203000 -0.253400
vn -0.204400 -0.613300 -0.762900
vn -0.596200 -0.537700 -0.596200
vn -0.762900 -0.613300 -0.204400
vn -0.762900 -0.613300 0.204400
vn -0.596200 -0.537700 0.596200
vn -0.204400 -0.613300 0.762900
vn 0.204400 -0.613300 0.762900
vn 0.596200 -0.537700 0.596200
vn 0.762900 -0.613300 0.204400
vn 0.762900 -0.613300 -0.204400
vn 0.596200 -0.537700 -0.596200
vn 0.204400 -0.613300 -0.762900
vn 0.965900 0.000000 -0.258800
vn 0.707100 0.000000 -0.707100
vn 0.258800 0.000000 -0.965900
vn -0.965900 0.000000 -0.258800
vn -0.707100 0.000000 -0.707100
vn -0.258800 0.000000 -0.965900
vn -0.258800 0.000000 0.965900
vn -0.707100 0.000000 0.707100
vn -0.965900 0.000000 0.258800
vn 0.965900 0.000000 0.258800
vn 0.707100 0.000000 0.707100
vn 0.258800 0.000000 0.965900
vn 0.000000 0.382600 -0.923900
vn -0.923800 0.382900 -0.000000
vn 0.923800 0.382900 0.000000
vn 0.057800 0.823600 0.564200
vn 0.057800 0.823600 -0.564200
vn 0.564200 0.823600 -0.057800
vn -0.564200 0.823600 -0.057800
vn -0.057800 0.823600 -0.564200
vn -0.057800 0.823600 0.564200
vn -0.564200 0.823600 0.057800
vn 0.564200 0.823600 0.057800
vn 0.492000 0.718200 -0.492000
vn 0.492000 0.718200 0.492000
vn -0.492000 0.718200 0.492000
vn -0.492000 0.718200 -0.492000
vn 0.000000 0.382600 0.923900
s off
f 121/1/1 147/1/1 11/1/1
f 193/1/2 72/1/2 75/1/2
f 66/1/1 7/1/1 73/1/1
f 148/1/1 87/1/1 5/1/1
f 3/1/1 52/1/1 113/1/1
f 188/1/3 9/1/3 12/1/3
f 60/1/1 65/1/1 167/1/1
f 165/1/1 74/1/1 80/1/1
f 203/1/4 25/1/4 16/1/4
f 44/1/1 114/1/1 105/1/1
f 53/1/1 59/1/1 140/1/1
f 38/1/1 102/1/1 96/1/1
f 111/1/1 141/1/1 132/1/1
f 130/1/1 156/1/1 150/1/1
f 94/1/1 120/1/1 18/1/1
f 138/1/1 168/1/1 159/1/1
f 183/1/5 51/1/5 54/1/5
f 103/1/1 129/1/1 123/1/1
f 157/1/1 81/1/1 86/1/1
f 9/1/6 13/1/6 12/1/6
f 12/1/7 13/1/7 14/1/7
f 14/1/8 13/1/8 15/1/8
f 16/1/6 20/1/6 19/1/6
f 19/1/7 20/1/7 21/1/7
f 21/1/8 20/1/8 22/1/8
f 29/1/7 27/1/7 26/1/7
f 26/1/9 27/1/9 28/1/9
f 25/1/6 27/1/6 29/1/6
f 30/1/10 34/1/10 33/1/10
f 33/1/11 34/1/11 35/1/11
f 35/1/12 34/1/12 36/1/12
f 37/1/10 41/1/10 40/1/10
f 40/1/11 41/1/11 42/1/11
f 42/1/13 41/1/13 43/1/13
f 50/1/14 48/1/14 47/1/14
f 47/1/12 48/1/12 49/1/12
f 46/1/10 48/1/10 50/1/10
f 51/1/15 55/1/15 54/1/15
f 54/1/16 55/1/16 56/1/16
f 56/1/17 55/1/17 57/1/17
f 58/1/15 62/1/15 61/1/15
f 61/1/16 62/1/16 63/1/16
f 63/1/17 62/1/17 64/1/17
f 71/1/16 69/1/16 68/1/16
f 68/1/18 69/1/18 70/1/18
f 67/1/15 69/1/15 71/1/15
f 72/1/19 76/1/19 75/1/19
f 75/1/20 76/1/20 77/1/20
f 77/1/21 76/1/21 78/1/21
f 79/1/19 83/1/19 82/1/19
f 82/1/20 83/1/20 84/1/20
f 84/1/22 83/1/22 85/1/22
f 92/1/23 90/1/23 89/1/23
f 89/1/21 90/1/21 91/1/21
f 88/1/19 90/1/19 92/1/19
f 101/1/1 98/1/1 97/1/1
f 97/1/1 98/1/1 99/1/1
f 99/1/1 98/1/1 100/1/1
f 100/1/1 98/1/1 101/1/1
f 110/1/1 107/1/1 106/1/1
f 106/1/1 107/1/1 108/1/1
f 108/1/1 107/1/1 109/1/1
f 109/1/1 107/1/1 110/1/1
f 119/1/1 116/1/1 115/1/1
f 115/1/1 116/1/1 117/1/1
f 117/1/1 116/1/1 118/1/1
f 118/1/1 116/1/1 119/1/1
f 128/1/1 125/1/1 124/1/1
f 124/1/1 125/1/1 126/1/1
f 126/1/1 125/1/1 127/1/1
f 127/1/1 125/1/1 128/1/1
f 137/1/1 134/1/1 133/1/1
f 133/1/1 134/1/1 135/1/1
f 135/1/1 134/1/1 136/1/1
f 136/1/1 134/1/1 137/1/1
f 146/1/1 143/1/1 142/1/1
f 142/1/1 143/1/1 144/1/1
f 144/1/1 143/1/1 145/1/1
f 145/1/1 143/1/1 146/1/1
f 155/1/1 152/1/1 151/1/1
f 151/1/1 152/1/1 153/1/1
f 153/1/1 152/1/1 154/1/1
f 154/1/1 152/1/1 155/1/1
f 164/1/1 161/1/1 160/1/1
f 160/1/1 161/1/1 162/1/1
f 162/1/1 161/1/1 163/1/1
f 163/1/1 161/1/1 164/1/1
f 173/1/1 170/1/1 169/1/1
f 169/1/1 170/1/1 171/1/1
f 171/1/1 170/1/1 172/1/1
f 172/1/1 170/1/1 173/1/1
f 28/1/24 2/1/24 1/1/24
f 208/1/25 46/1/25 37/1/25
f 49/1/26 4/1/26 3/1/26
f 213/1/27 67/1/27 58/1/27
f 70/1/28 8/1/28 7/1/28
f 174/1/29 198/1/29 214/1/29
f 91/1/30 6/1/30 5/1/30
f 198/1/31 88/1/31 79/1/31
f 5/1/24 6/1/24 12/1/24
f 189/1/32 190/1/32 6/1/32
f 15/1/24 19/1/24 17/1/24
f 15/1/3 9/1/3 16/1/3
f 18/1/24 22/1/24 29/1/24
f 16/1/3 25/1/3 29/1/3
f 1/1/26 2/1/26 33/1/26
f 179/1/33 180/1/33 2/1/33
f 36/1/26 40/1/26 38/1/26
f 30/1/34 37/1/34 40/1/34
f 43/1/26 50/1/26 44/1/26
f 37/1/34 46/1/34 50/1/34
f 3/1/28 4/1/28 54/1/28
f 184/1/35 185/1/35 4/1/35
f 57/1/28 61/1/28 59/1/28
f 57/1/5 51/1/5 58/1/5
f 60/1/28 64/1/28 71/1/28
f 58/1/5 67/1/5 71/1/5
f 7/1/30 8/1/30 75/1/30
f 194/1/36 195/1/36 8/1/36
f 78/1/30 82/1/30 80/1/30
f 72/1/2 79/1/2 82/1/2
f 85/1/30 92/1/30 86/1/30
f 79/1/2 88/1/2 92/1/2
f 117/1/37 56/1/37 53/1/37
f 113/1/38 52/1/38 56/1/38
f 26/1/37 97/1/37 94/1/37
f 26/1/38 24/1/38 93/1/38
f 100/1/37 106/1/37 103/1/37
f 100/1/38 96/1/38 102/1/38
f 109/1/37 119/1/37 111/1/37
f 109/1/38 105/1/38 114/1/38
f 139/1/37 144/1/37 63/1/37
f 140/1/38 59/1/38 63/1/38
f 17/1/37 21/1/37 124/1/37
f 18/1/38 120/1/38 124/1/38
f 127/1/37 133/1/37 130/1/37
f 123/1/38 129/1/38 133/1/38
f 136/1/37 146/1/37 138/1/37
f 132/1/38 141/1/38 146/1/38
f 171/1/37 68/1/37 66/1/37
f 167/1/38 65/1/38 68/1/38
f 14/1/37 151/1/37 148/1/37
f 11/1/38 147/1/38 151/1/38
f 154/1/37 160/1/37 157/1/37
f 154/1/38 150/1/38 156/1/38
f 163/1/37 173/1/37 165/1/37
f 163/1/38 159/1/38 168/1/38
f 101/1/39 35/1/39 32/1/39
f 93/1/40 31/1/40 35/1/40
f 105/1/39 110/1/39 42/1/39
f 102/1/40 38/1/40 42/1/40
f 118/1/39 47/1/39 45/1/39
f 114/1/40 44/1/40 47/1/40
f 128/1/39 99/1/39 95/1/39
f 128/1/40 120/1/40 94/1/40
f 137/1/39 108/1/39 104/1/39
f 129/1/40 103/1/40 108/1/40
f 145/1/39 115/1/39 112/1/39
f 141/1/40 111/1/40 115/1/40
f 155/1/39 126/1/39 122/1/39
f 155/1/40 147/1/40 121/1/40
f 164/1/39 135/1/39 131/1/39
f 156/1/40 130/1/40 135/1/40
f 172/1/39 142/1/39 139/1/39
f 168/1/40 138/1/40 142/1/40
f 89/1/39 153/1/39 149/1/39
f 89/1/40 87/1/40 148/1/40
f 80/1/39 84/1/39 162/1/39
f 81/1/40 157/1/40 162/1/40
f 77/1/39 169/1/39 166/1/39
f 74/1/40 165/1/40 169/1/40
f 31/1/1 93/1/1 24/1/1
f 28/1/41 27/1/41 25/1/41
f 15/1/41 13/1/41 9/1/41
f 22/1/41 20/1/41 16/1/41
f 36/1/42 34/1/42 30/1/42
f 43/1/42 41/1/42 37/1/42
f 49/1/42 48/1/42 46/1/42
f 57/1/43 55/1/43 51/1/43
f 64/1/43 62/1/43 58/1/43
f 70/1/43 69/1/43 67/1/43
f 78/1/44 76/1/44 72/1/44
f 85/1/44 83/1/44 79/1/44
f 91/1/44 90/1/44 88/1/44
f 176/1/45 208/1/45 204/1/45
f 177/1/46 213/1/46 209/1/46
f 175/1/47 203/1/47 199/1/47
f 174/1/48 177/1/48 176/1/48
f 178/1/49 180/1/49 181/1/49
f 181/1/50 180/1/50 182/1/50
f 182/1/51 180/1/51 179/1/51
f 183/1/52 185/1/52 186/1/52
f 186/1/53 185/1/53 187/1/53
f 187/1/54 185/1/54 184/1/54
f 188/1/55 190/1/55 191/1/55
f 191/1/56 190/1/56 192/1/56
f 192/1/57 190/1/57 189/1/57
f 193/1/58 195/1/58 196/1/58
f 196/1/59 195/1/59 197/1/59
f 197/1/60 195/1/60 194/1/60
f 198/1/61 200/1/61 201/1/61
f 201/1/62 200/1/62 202/1/62
f 202/1/63 200/1/63 199/1/63
f 203/1/64 205/1/64 206/1/64
f 206/1/65 205/1/65 207/1/65
f 207/1/66 205/1/66 204/1/66
f 208/1/67 210/1/67 211/1/67
f 211/1/68 210/1/68 212/1/68
f 212/1/69 210/1/69 209/1/69
f 213/1/70 215/1/70 216/1/70
f 216/1/71 215/1/71 217/1/71
f 217/1/72 215/1/72 214/1/72
f 216/1/73 197/1/73 194/1/73
f 217/1/74 196/1/74 197/1/74
f 214/1/75 193/1/75 196/1/75
f 191/1/76 202/1/76 199/1/76
f 192/1/77 201/1/77 202/1/77
f 189/1/78 198/1/78 201/1/78
f 181/1/79 207/1/79 204/1/79
f 182/1/80 206/1/80 207/1/80
f 179/1/81 203/1/81 206/1/81
f 186/1/82 212/1/82 209/1/82
f 187/1/83 211/1/83 212/1/83
f 184/1/84 208/1/84 211/1/84
f 178/1/34 30/1/34 33/1/34
f 17/1/1 121/1/1 11/1/1
f 75/1/2 8/1/2 193/1/2
f 195/1/85 193/1/85 8/1/85
f 166/1/1 66/1/1 73/1/1
f 10/1/1 148/1/1 5/1/1
f 45/1/1 3/1/1 113/1/1
f 12/1/3 6/1/3 188/1/3
f 190/1/86 188/1/86 6/1/86
f 139/1/1 60/1/1 167/1/1
f 158/1/1 165/1/1 80/1/1
f 9/1/4 188/1/4 199/1/4
f 199/1/4 203/1/4 16/1/4
f 179/1/4 25/1/4 203/1/4
f 16/1/4 9/1/4 199/1/4
f 39/1/1 44/1/1 105/1/1
f 112/1/1 53/1/1 140/1/1
f 32/1/1 38/1/1 96/1/1
f 104/1/1 111/1/1 132/1/1
f 122/1/1 130/1/1 150/1/1
f 23/1/1 94/1/1 18/1/1
f 131/1/1 138/1/1 159/1/1
f 54/1/5 4/1/5 183/1/5
f 185/1/87 183/1/87 4/1/87
f 95/1/1 103/1/1 123/1/1
f 149/1/1 157/1/1 86/1/1
f 10/1/88 12/1/88 14/1/88
f 11/1/89 14/1/89 15/1/89
f 17/1/88 19/1/88 21/1/88
f 18/1/89 21/1/89 22/1/89
f 23/1/88 29/1/88 26/1/88
f 24/1/89 26/1/89 28/1/89
f 31/1/90 33/1/90 35/1/90
f 32/1/91 35/1/91 36/1/91
f 38/1/90 40/1/90 42/1/90
f 39/1/91 42/1/91 43/1/91
f 44/1/90 50/1/90 47/1/90
f 45/1/91 47/1/91 49/1/91
f 52/1/92 54/1/92 56/1/92
f 53/1/93 56/1/93 57/1/93
f 59/1/92 61/1/92 63/1/92
f 60/1/93 63/1/93 64/1/93
f 65/1/92 71/1/92 68/1/92
f 66/1/93 68/1/93 70/1/93
f 73/1/94 75/1/94 77/1/94
f 74/1/95 77/1/95 78/1/95
f 80/1/94 82/1/94 84/1/94
f 81/1/95 84/1/95 85/1/95
f 86/1/94 92/1/94 89/1/94
f 87/1/95 89/1/95 91/1/95
f 93/1/96 101/1/96 97/1/96
f 94/1/97 97/1/97 99/1/97
f 95/1/98 99/1/98 100/1/98
f 96/1/99 100/1/99 101/1/99
f 102/1/96 110/1/96 106/1/96
f 103/1/97 106/1/97 108/1/97
f 104/1/98 108/1/98 109/1/98
f 105/1/99 109/1/99 110/1/99
f 111/1/97 119/1/97 115/1/97
f 112/1/98 115/1/98 117/1/98
f 113/1/99 117/1/99 118/1/99
f 114/1/96 118/1/96 119/1/96
f 120/1/96 128/1/96 124/1/96
f 121/1/97 124/1/97 126/1/97
f 122/1/98 126/1/98 127/1/98
f 123/1/99 127/1/99 128/1/99
f 129/1/96 137/1/96 133/1/96
f 130/1/97 133/1/97 135/1/97
f 131/1/98 135/1/98 136/1/98
f 132/1/99 136/1/99 137/1/99
f 138/1/97 146/1/97 142/1/97
f 139/1/98 142/1/98 144/1/98
f 140/1/99 144/1/99 145/1/99
f 141/1/96 145/1/96 146/1/96
f 147/1/96 155/1/96 151/1/96
f 148/1/97 151/1/97 153/1/97
f 149/1/98 153/1/98 154/1/98
f 150/1/99 154/1/99 155/1/99
f 156/1/96 164/1/96 160/1/96
f 157/1/97 160/1/97 162/1/97
f 158/1/98 162/1/98 163/1/98
f 159/1/99 163/1/99 164/1/99
f 165/1/97 173/1/97 169/1/97
f 166/1/98 169/1/98 171/1/98
f 167/1/99 171/1/99 172/1/99
f 168/1/96 172/1/96 173/1/96
f 24/1/24 28/1/24 1/1/24
f 30/1/25 178/1/25 204/1/25
f 204/1/25 208/1/25 37/1/25
f 184/1/25 46/1/25 208/1/25
f 37/1/25 30/1/25 204/1/25
f 45/1/26 49/1/26 3/1/26
f 51/1/27 183/1/27 209/1/27
f 209/1/27 213/1/27 58/1/27
f 194/1/27 67/1/27 213/1/27
f 58/1/27 51/1/27 209/1/27
f 66/1/28 70/1/28 7/1/28
f 214/1/29 215/1/29 177/1/29
f 177/1/29 174/1/29 214/1/29
f 200/1/29 198/1/29 174/1/29
f 87/1/30 91/1/30 5/1/30
f 72/1/31 193/1/31 214/1/31
f 214/1/31 198/1/31 79/1/31
f 189/1/31 88/1/31 198/1/31
f 79/1/31 72/1/31 214/1/31
f 10/1/24 5/1/24 12/1/24
f 6/1/2 91/1/2 189/1/2
f 88/1/2 189/1/2 91/1/2
f 11/1/24 15/1/24 17/1/24
f 19/1/3 15/1/3 16/1/3
f 23/1/24 18/1/24 29/1/24
f 22/1/3 16/1/3 29/1/3
f 31/1/26 1/1/26 33/1/26
f 2/1/3 28/1/3 179/1/3
f 25/1/3 179/1/3 28/1/3
f 32/1/26 36/1/26 38/1/26
f 36/1/34 30/1/34 40/1/34
f 39/1/26 43/1/26 44/1/26
f 43/1/34 37/1/34 50/1/34
f 52/1/28 3/1/28 54/1/28
f 4/1/34 49/1/34 184/1/34
f 46/1/34 184/1/34 49/1/34
f 53/1/28 57/1/28 59/1/28
f 61/1/5 57/1/5 58/1/5
f 65/1/28 60/1/28 71/1/28
f 64/1/5 58/1/5 71/1/5
f 73/1/30 7/1/30 75/1/30
f 8/1/5 70/1/5 194/1/5
f 67/1/5 194/1/5 70/1/5
f 74/1/30 78/1/30 80/1/30
f 78/1/2 72/1/2 82/1/2
f 81/1/30 85/1/30 86/1/30
f 85/1/2 79/1/2 92/1/2
f 112/1/37 117/1/37 53/1/37
f 117/1/38 113/1/38 56/1/38
f 23/1/37 26/1/37 94/1/37
f 97/1/38 26/1/38 93/1/38
f 95/1/37 100/1/37 103/1/37
f 106/1/38 100/1/38 102/1/38
f 104/1/37 109/1/37 111/1/37
f 119/1/38 109/1/38 114/1/38
f 60/1/37 139/1/37 63/1/37
f 144/1/38 140/1/38 63/1/38
f 121/1/37 17/1/37 124/1/37
f 21/1/38 18/1/38 124/1/38
f 122/1/37 127/1/37 130/1/37
f 127/1/38 123/1/38 133/1/38
f 131/1/37 136/1/37 138/1/37
f 136/1/38 132/1/38 146/1/38
f 166/1/37 171/1/37 66/1/37
f 171/1/38 167/1/38 68/1/38
f 10/1/37 14/1/37 148/1/37
f 14/1/38 11/1/38 151/1/38
f 149/1/37 154/1/37 157/1/37
f 160/1/38 154/1/38 156/1/38
f 158/1/37 163/1/37 165/1/37
f 173/1/38 163/1/38 168/1/38
f 96/1/39 101/1/39 32/1/39
f 101/1/40 93/1/40 35/1/40
f 39/1/39 105/1/39 42/1/39
f 110/1/40 102/1/40 42/1/40
f 113/1/39 118/1/39 45/1/39
f 118/1/40 114/1/40 47/1/40
f 123/1/39 128/1/39 95/1/39
f 99/1/40 128/1/40 94/1/40
f 132/1/39 137/1/39 104/1/39
f 137/1/40 129/1/40 108/1/40
f 140/1/39 145/1/39 112/1/39
f 145/1/40 141/1/40 115/1/40
f 150/1/39 155/1/39 122/1/39
f 126/1/40 155/1/40 121/1/40
f 159/1/39 164/1/39 131/1/39
f 164/1/40 156/1/40 135/1/40
f 167/1/39 172/1/39 139/1/39
f 172/1/40 168/1/40 142/1/40
f 86/1/39 89/1/39 149/1/39
f 153/1/40 89/1/40 148/1/40
f 158/1/39 80/1/39 162/1/39
f 84/1/40 81/1/40 162/1/40
f 73/1/39 77/1/39 166/1/39
f 77/1/40 74/1/40 169/1/40
f 1/1/1 31/1/1 24/1/1
f 204/1/45 205/1/45 175/1/45
f 175/1/45 176/1/45 204/1/45
f 210/1/45 208/1/45 176/1/45
f 209/1/46 210/1/46 176/1/46
f 176/1/46 177/1/46 209/1/46
f 215/1/46 213/1/46 177/1/46
f 199/1/47 200/1/47 174/1/47
f 174/1/47 175/1/47 199/1/47
f 205/1/47 203/1/47 175/1/47
f 175/1/48 174/1/48 176/1/48
f 213/1/73 216/1/73 194/1/73
f 216/1/74 217/1/74 197/1/74
f 217/1/75 214/1/75 196/1/75
f 188/1/76 191/1/76 199/1/76
f 191/1/77 192/1/77 202/1/77
f 192/1/78 189/1/78 201/1/78
f 178/1/79 181/1/79 204/1/79
f 181/1/80 182/1/80 207/1/80
f 182/1/81 179/1/81 206/1/81
f 183/1/82 186/1/82 209/1/82
f 186/1/83 187/1/83 212/1/83
f 187/1/84 184/1/84 211/1/84
f 33/1/34 2/1/34 178/1/34
f 180/1/100 178/1/100 2/1/100
